P3
5 4
255
255 0 0    0 0 0    0 0 0    0 0 0    0 255 0    
100 42 33    0 0 0    0 0 0    0 0 0    0 0 0    
0 0 0    105 32 175    0 0 0    0 0 0    0 0 0    
0 0 255    0 0 0    0 0 0    0 0 0    255 255 255    
